{"glyphs":{"0":{"ha":938,"x_min":104,"x_max":833,"o":"m 639 146 l 639 194 l 688 194 l 688 583 l 639 583 l 639 535 l 590 535 l 590 486 l 542 486 l 542 438 l 493 438 l 493 389 l 444 389 l 444 340 l 396 340 l 396 292 l 347 292 l 347 243 l 299 243 l 299 146 l 639 146 m 299 826 l 299 778 l 250 778 l 250 389 l 299 389 l 299 438 l 347 438 l 347 486 l 396 486 l 396 535 l 444 535 l 444 583 l 493 583 l 493 632 l 542 632 l 542 681 l 590 681 l 590 729 l 639 729 l 639 826 l 299 826 m 688 0 l 250 0 l 250 49 l 201 49 l 201 97 l 153 97 l 153 146 l 104 146 l 104 826 l 153 826 l 153 875 l 201 875 l 201 924 l 250 924 l 250 972 l 688 972 l 688 924 l 736 924 l 736 875 l 785 875 l 785 826 l 833 826 l 833 146 l 785 146 l 785 97 l 736 97 l 736 49 l 688 49 l 688 0 z "},"1":{"ha":646,"x_min":104,"x_max":542,"o":"m 201 826 l 250 826 l 250 875 l 299 875 l 299 924 l 347 924 l 347 972 l 542 972 l 542 0 l 396 0 l 396 778 l 347 778 l 347 729 l 299 729 l 299 681 l 250 681 l 250 632 l 201 632 l 201 583 l 104 583 l 104 729 l 153 729 l 153 778 l 201 778 l 201 826 z "},"2":{"ha":938,"x_min":104,"x_max":833,"o":"m 104 0 l 104 389 l 153 389 l 153 438 l 201 438 l 201 486 l 250 486 l 250 535 l 639 535 l 639 583 l 688 583 l 688 778 l 639 778 l 639 826 l 299 826 l 299 778 l 104 778 l 104 875 l 153 875 l 153 924 l 201 924 l 201 972 l 688 972 l 688 924 l 736 924 l 736 875 l 785 875 l 785 826 l 833 826 l 833 535 l 785 535 l 785 486 l 736 486 l 736 438 l 688 438 l 688 389 l 299 389 l 299 340 l 250 340 l 250 146 l 833 146 l 833 0 l 104 0 z "},"3":{"ha":938,"x_min":104,"x_max":833,"o":"m 688 0 l 104 0 l 104 146 l 639 146 l 639 194 l 688 194 l 688 389 l 639 389 l 639 438 l 299 438 l 299 583 l 639 583 l 639 632 l 688 632 l 688 778 l 639 778 l 639 826 l 104 826 l 104 972 l 688 972 l 688 924 l 736 924 l 736 875 l 785 875 l 785 826 l 833 826 l 833 583 l 785 583 l 785 535 l 736 535 l 736 486 l 785 486 l 785 438 l 833 438 l 833 146 l 785 146 l 785 97 l 736 97 l 736 49 l 688 49 l 688 0 z "},"4":{"ha":938,"x_min":104,"x_max":833,"o":"m 833 972 l 833 0 l 688 0 l 688 389 l 104 389 l 104 972 l 250 972 l 250 535 l 688 535 l 688 972 l 833 972 z "},"5":{"ha":938,"x_min":104,"x_max":833,"o":"m 201 49 l 153 49 l 153 97 l 104 97 l 104 194 l 299 194 l 299 146 l 639 146 l 639 194 l 688 194 l 688 389 l 639 389 l 639 438 l 104 438 l 104 972 l 785 972 l 785 826 l 250 826 l 250 583 l 688 583 l 688 535 l 736 535 l 736 486 l 785 486 l 785 438 l 833 438 l 833 146 l 785 146 l 785 97 l 736 97 l 736 49 l 688 49 l 688 0 l 201 0 l 201 49 z "},"6":{"ha":938,"x_min":104,"x_max":833,"o":"m 201 49 l 201 97 l 153 97 l 153 146 l 104 146 l 104 826 l 153 826 l 153 875 l 201 875 l 201 924 l 250 924 l 250 972 l 736 972 l 736 924 l 785 924 l 785 875 l 833 875 l 833 778 l 639 778 l 639 826 l 299 826 l 299 778 l 250 778 l 250 583 l 688 583 l 688 535 l 736 535 l 736 486 l 785 486 l 785 438 l 833 438 l 833 146 l 785 146 l 785 97 l 736 97 l 736 49 l 688 49 l 688 0 l 250 0 l 250 49 l 201 49 m 639 194 l 688 194 l 688 389 l 639 389 l 639 438 l 250 438 l 250 194 l 299 194 l 299 146 l 639 146 l 639 194 z "},"7":{"ha":938,"x_min":104,"x_max":833,"o":"m 688 438 l 299 438 l 299 583 l 688 583 l 688 826 l 104 826 l 104 972 l 833 972 l 833 0 l 688 0 l 688 438 z "},"8":{"ha":938,"x_min":104,"x_max":833,"o":"m 299 826 l 299 778 l 250 778 l 250 632 l 299 632 l 299 583 l 639 583 l 639 632 l 688 632 l 688 778 l 639 778 l 639 826 l 299 826 m 639 146 l 639 194 l 688 194 l 688 389 l 639 389 l 639 438 l 299 438 l 299 389 l 250 389 l 250 194 l 299 194 l 299 146 l 639 146 m 688 0 l 250 0 l 250 49 l 201 49 l 201 97 l 153 97 l 153 146 l 104 146 l 104 438 l 153 438 l 153 486 l 201 486 l 201 535 l 153 535 l 153 583 l 104 583 l 104 826 l 153 826 l 153 875 l 201 875 l 201 924 l 250 924 l 250 972 l 688 972 l 688 924 l 736 924 l 736 875 l 785 875 l 785 826 l 833 826 l 833 583 l 785 583 l 785 535 l 736 535 l 736 486 l 785 486 l 785 438 l 833 438 l 833 146 l 785 146 l 785 97 l 736 97 l 736 49 l 688 49 l 688 0 z "},"9":{"ha":938,"x_min":104,"x_max":833,"o":"m 736 924 l 736 875 l 785 875 l 785 826 l 833 826 l 833 146 l 785 146 l 785 97 l 736 97 l 736 49 l 688 49 l 688 0 l 201 0 l 201 49 l 153 49 l 153 97 l 104 97 l 104 194 l 299 194 l 299 146 l 639 146 l 639 194 l 688 194 l 688 389 l 250 389 l 250 438 l 201 438 l 201 486 l 153 486 l 153 535 l 104 535 l 104 826 l 153 826 l 153 875 l 201 875 l 201 924 l 250 924 l 250 972 l 688 972 l 688 924 l 736 924 m 299 778 l 250 778 l 250 583 l 299 583 l 299 535 l 688 535 l 688 778 l 639 778 l 639 826 l 299 826 l 299 778 z "},"\u0000":{"ha":0,"x_min":0,"x_max":0,"o":""},"\r":{"ha":463,"x_min":0,"x_max":0,"o":""}," ":{"ha":361,"x_min":0,"x_max":0,"o":""},"!":{"ha":354,"x_min":104,"x_max":250,"o":"m 104 972 l 250 972 l 250 292 l 104 292 l 104 972 m 104 146 l 250 146 l 250 0 l 104 0 l 104 146 z "},"\"":{"ha":549,"x_min":104,"x_max":444,"o":"m 104 972 l 201 972 l 201 681 l 104 681 l 104 972 m 347 972 l 444 972 l 444 681 l 347 681 l 347 972 z "},"#":{"ha":986,"x_min":104,"x_max":882,"o":"m 396 583 l 396 389 l 590 389 l 590 583 l 396 583 m 104 243 l 104 389 l 250 389 l 250 583 l 104 583 l 104 729 l 250 729 l 250 875 l 396 875 l 396 729 l 590 729 l 590 875 l 736 875 l 736 729 l 882 729 l 882 583 l 736 583 l 736 389 l 882 389 l 882 243 l 736 243 l 736 97 l 590 97 l 590 243 l 396 243 l 396 97 l 250 97 l 250 243 l 104 243 z "},"$":{"ha":938,"x_min":104,"x_max":833,"o":"m 639 194 l 688 194 l 688 340 l 639 340 l 639 389 l 542 389 l 542 146 l 639 146 l 639 194 m 396 826 l 299 826 l 299 778 l 250 778 l 250 583 l 299 583 l 299 535 l 396 535 l 396 826 m 201 97 l 153 97 l 153 146 l 104 146 l 104 243 l 250 243 l 250 194 l 299 194 l 299 146 l 396 146 l 396 389 l 250 389 l 250 438 l 201 438 l 201 486 l 153 486 l 153 535 l 104 535 l 104 826 l 153 826 l 153 875 l 201 875 l 201 924 l 250 924 l 250 972 l 396 972 l 396 1021 l 542 1021 l 542 972 l 688 972 l 688 924 l 736 924 l 736 875 l 785 875 l 785 826 l 833 826 l 833 681 l 688 681 l 688 778 l 639 778 l 639 826 l 542 826 l 542 535 l 688 535 l 688 486 l 736 486 l 736 438 l 785 438 l 785 389 l 833 389 l 833 146 l 785 146 l 785 97 l 736 97 l 736 49 l 688 49 l 688 0 l 542 0 l 542 -49 l 396 -49 l 396 0 l 250 0 l 250 49 l 201 49 l 201 97 z "},"%":{"ha":1083,"x_min":104,"x_max":979,"o":"m 347 924 l 347 681 l 104 681 l 104 924 l 347 924 m 833 632 l 785 632 l 785 583 l 736 583 l 736 535 l 688 535 l 688 486 l 639 486 l 639 438 l 590 438 l 590 389 l 542 389 l 542 340 l 493 340 l 493 292 l 444 292 l 444 243 l 396 243 l 396 194 l 347 194 l 347 146 l 299 146 l 299 97 l 250 97 l 250 49 l 104 49 l 104 194 l 153 194 l 153 243 l 201 243 l 201 292 l 250 292 l 250 340 l 299 340 l 299 389 l 347 389 l 347 438 l 396 438 l 396 486 l 444 486 l 444 535 l 493 535 l 493 583 l 542 583 l 542 632 l 590 632 l 590 681 l 639 681 l 639 729 l 688 729 l 688 778 l 736 778 l 736 826 l 785 826 l 785 875 l 833 875 l 833 924 l 979 924 l 979 778 l 931 778 l 931 729 l 882 729 l 882 681 l 833 681 l 833 632 m 736 49 l 736 292 l 979 292 l 979 49 l 736 49 z "},"&":{"ha":1083,"x_min":104,"x_max":979,"o":"m 299 826 l 299 778 l 250 778 l 250 632 l 299 632 l 299 583 l 542 583 l 542 632 l 590 632 l 590 778 l 542 778 l 542 826 l 299 826 m 639 146 l 639 194 l 688 194 l 688 389 l 639 389 l 639 438 l 299 438 l 299 389 l 250 389 l 250 194 l 299 194 l 299 146 l 639 146 m 688 0 l 250 0 l 250 49 l 201 49 l 201 97 l 153 97 l 153 146 l 104 146 l 104 438 l 153 438 l 153 486 l 201 486 l 201 535 l 153 535 l 153 583 l 104 583 l 104 826 l 153 826 l 153 875 l 201 875 l 201 924 l 250 924 l 250 972 l 590 972 l 590 924 l 639 924 l 639 875 l 688 875 l 688 826 l 736 826 l 736 583 l 688 583 l 688 535 l 979 535 l 979 389 l 833 389 l 833 292 l 979 292 l 979 0 l 882 0 l 882 146 l 785 146 l 785 97 l 736 97 l 736 49 l 688 49 l 688 0 z "},"'":{"ha":306,"x_min":104,"x_max":201,"o":"m 104 972 l 201 972 l 201 681 l 104 681 l 104 972 z "},"(":{"ha":597,"x_min":104,"x_max":493,"o":"m 250 -194 l 250 -146 l 201 -146 l 201 -97 l 153 -97 l 153 -49 l 104 -49 l 104 681 l 153 681 l 153 729 l 201 729 l 201 778 l 250 778 l 250 826 l 299 826 l 299 875 l 347 875 l 347 924 l 396 924 l 396 972 l 493 972 l 493 826 l 444 826 l 444 778 l 396 778 l 396 729 l 347 729 l 347 681 l 299 681 l 299 632 l 250 632 l 250 0 l 299 0 l 299 -49 l 347 -49 l 347 -97 l 396 -97 l 396 -146 l 444 -146 l 444 -194 l 493 -194 l 493 -340 l 396 -340 l 396 -292 l 347 -292 l 347 -243 l 299 -243 l 299 -194 l 250 -194 z "},")":{"ha":597,"x_min":104,"x_max":493,"o":"m 347 826 l 347 778 l 396 778 l 396 729 l 444 729 l 444 681 l 493 681 l 493 -49 l 444 -49 l 444 -97 l 396 -97 l 396 -146 l 347 -146 l 347 -194 l 299 -194 l 299 -243 l 250 -243 l 250 -292 l 201 -292 l 201 -340 l 104 -340 l 104 -194 l 153 -194 l 153 -146 l 201 -146 l 201 -97 l 250 -97 l 250 -49 l 299 -49 l 299 0 l 347 0 l 347 632 l 299 632 l 299 681 l 250 681 l 250 729 l 201 729 l 201 778 l 153 778 l 153 826 l 104 826 l 104 972 l 201 972 l 201 924 l 250 924 l 250 875 l 299 875 l 299 826 l 347 826 z "},"*":{"ha":743,"x_min":104,"x_max":639,"o":"m 347 943 l 347 894 l 396 894 l 396 943 l 444 943 l 444 992 l 493 992 l 493 1040 l 639 1040 l 639 943 l 590 943 l 590 894 l 542 894 l 542 846 l 493 846 l 493 797 l 542 797 l 542 749 l 590 749 l 590 700 l 639 700 l 639 603 l 493 603 l 493 651 l 444 651 l 444 700 l 396 700 l 396 749 l 347 749 l 347 700 l 299 700 l 299 651 l 250 651 l 250 603 l 104 603 l 104 700 l 153 700 l 153 749 l 201 749 l 201 797 l 250 797 l 250 846 l 201 846 l 201 894 l 153 894 l 153 943 l 104 943 l 104 1040 l 250 1040 l 250 992 l 299 992 l 299 943 l 347 943 z "},"+":{"ha":743,"x_min":104,"x_max":639,"o":"m 104 535 l 299 535 l 299 729 l 444 729 l 444 535 l 639 535 l 639 389 l 444 389 l 444 194 l 299 194 l 299 389 l 104 389 l 104 535 z "},",":{"ha":354,"x_min":104,"x_max":250,"o":"m 201 -49 l 153 -49 l 153 -97 l 104 -97 l 104 146 l 250 146 l 250 0 l 201 0 l 201 -49 z "},"-":{"ha":792,"x_min":104,"x_max":688,"o":"m 104 486 l 688 486 l 688 340 l 104 340 l 104 486 z "},".":{"ha":354,"x_min":104,"x_max":250,"o":"m 104 146 l 250 146 l 250 0 l 104 0 l 104 146 z "},"/":{"ha":646,"x_min":104,"x_max":542,"o":"m 493 900 l 493 997 l 542 997 l 542 754 l 493 754 l 493 657 l 444 657 l 444 560 l 396 560 l 396 463 l 347 463 l 347 365 l 299 365 l 299 268 l 250 268 l 250 171 l 201 171 l 201 74 l 153 74 l 153 -24 l 104 -24 l 104 219 l 153 219 l 153 317 l 201 317 l 201 414 l 250 414 l 250 511 l 299 511 l 299 608 l 347 608 l 347 706 l 396 706 l 396 803 l 444 803 l 444 900 l 493 900 z "},":":{"ha":354,"x_min":104,"x_max":250,"o":"m 104 729 l 250 729 l 250 583 l 104 583 l 104 729 m 104 146 l 250 146 l 250 0 l 104 0 l 104 146 z "},";":{"ha":354,"x_min":104,"x_max":250,"o":"m 104 729 l 250 729 l 250 583 l 104 583 l 104 729 m 201 -49 l 153 -49 l 153 -97 l 104 -97 l 104 146 l 250 146 l 250 0 l 201 0 l 201 -49 z "},"<":{"ha":840,"x_min":104,"x_max":736,"o":"m 201 535 l 299 535 l 299 583 l 396 583 l 396 632 l 493 632 l 493 681 l 590 681 l 590 729 l 736 729 l 736 632 l 639 632 l 639 583 l 542 583 l 542 535 l 444 535 l 444 486 l 347 486 l 347 389 l 444 389 l 444 340 l 542 340 l 542 292 l 639 292 l 639 243 l 736 243 l 736 146 l 590 146 l 590 194 l 493 194 l 493 243 l 396 243 l 396 292 l 299 292 l 299 340 l 201 340 l 201 389 l 104 389 l 104 486 l 201 486 l 201 535 z "},"=":{"ha":792,"x_min":104,"x_max":688,"o":"m 104 681 l 688 681 l 688 535 l 104 535 l 104 681 m 104 389 l 688 389 l 688 243 l 104 243 l 104 389 z "},">":{"ha":840,"x_min":104,"x_max":736,"o":"m 639 340 l 542 340 l 542 292 l 444 292 l 444 243 l 347 243 l 347 194 l 250 194 l 250 146 l 104 146 l 104 243 l 201 243 l 201 292 l 299 292 l 299 340 l 396 340 l 396 389 l 493 389 l 493 486 l 396 486 l 396 535 l 299 535 l 299 583 l 201 583 l 201 632 l 104 632 l 104 729 l 250 729 l 250 681 l 347 681 l 347 632 l 444 632 l 444 583 l 542 583 l 542 535 l 639 535 l 639 486 l 736 486 l 736 389 l 639 389 l 639 340 z "},"?":{"ha":792,"x_min":104,"x_max":688,"o":"m 104 972 l 688 972 l 688 535 l 493 535 l 493 243 l 347 243 l 347 681 l 542 681 l 542 826 l 250 826 l 250 681 l 104 681 l 104 972 m 347 146 l 493 146 l 493 0 l 347 0 l 347 146 z "},"@":{"ha":1181,"x_min":104,"x_max":1076,"o":"m 153 97 l 153 146 l 104 146 l 104 826 l 153 826 l 153 875 l 201 875 l 201 924 l 250 924 l 250 972 l 931 972 l 931 924 l 979 924 l 979 875 l 1028 875 l 1028 826 l 1076 826 l 1076 340 l 1028 340 l 1028 292 l 979 292 l 979 243 l 444 243 l 444 292 l 396 292 l 396 340 l 347 340 l 347 632 l 396 632 l 396 681 l 444 681 l 444 729 l 736 729 l 736 681 l 785 681 l 785 632 l 833 632 l 833 389 l 931 389 l 931 778 l 882 778 l 882 826 l 299 826 l 299 778 l 250 778 l 250 194 l 299 194 l 299 146 l 833 146 l 833 0 l 250 0 l 250 49 l 201 49 l 201 97 l 153 97 m 493 438 l 542 438 l 542 389 l 639 389 l 639 438 l 688 438 l 688 535 l 639 535 l 639 583 l 542 583 l 542 535 l 493 535 l 493 438 z "},"A":{"ha":938,"x_min":104,"x_max":833,"o":"m 250 875 l 299 875 l 299 924 l 347 924 l 347 972 l 590 972 l 590 924 l 639 924 l 639 875 l 688 875 l 688 826 l 736 826 l 736 778 l 785 778 l 785 729 l 833 729 l 833 0 l 688 0 l 688 292 l 250 292 l 250 0 l 104 0 l 104 729 l 153 729 l 153 778 l 201 778 l 201 826 l 250 826 l 250 875 m 396 826 l 396 778 l 347 778 l 347 729 l 299 729 l 299 681 l 250 681 l 250 438 l 688 438 l 688 681 l 639 681 l 639 729 l 590 729 l 590 778 l 542 778 l 542 826 l 396 826 z "},"B":{"ha":938,"x_min":104,"x_max":833,"o":"m 639 146 l 639 194 l 688 194 l 688 389 l 639 389 l 639 438 l 250 438 l 250 146 l 639 146 m 250 826 l 250 583 l 493 583 l 493 632 l 542 632 l 542 778 l 493 778 l 493 826 l 250 826 m 542 972 l 542 924 l 590 924 l 590 875 l 639 875 l 639 826 l 688 826 l 688 632 l 639 632 l 639 583 l 590 583 l 590 535 l 736 535 l 736 486 l 785 486 l 785 438 l 833 438 l 833 146 l 785 146 l 785 97 l 736 97 l 736 49 l 688 49 l 688 0 l 104 0 l 104 972 l 542 972 z "},"C":{"ha":938,"x_min":104,"x_max":833,"o":"m 736 0 l 250 0 l 250 49 l 201 49 l 201 97 l 153 97 l 153 146 l 104 146 l 104 826 l 153 826 l 153 875 l 201 875 l 201 924 l 250 924 l 250 972 l 736 972 l 736 924 l 785 924 l 785 875 l 833 875 l 833 778 l 639 778 l 639 826 l 299 826 l 299 778 l 250 778 l 250 194 l 299 194 l 299 146 l 639 146 l 639 194 l 833 194 l 833 97 l 785 97 l 785 49 l 736 49 l 736 0 z "},"D":{"ha":938,"x_min":104,"x_max":833,"o":"m 688 972 l 688 924 l 736 924 l 736 875 l 785 875 l 785 826 l 833 826 l 833 146 l 785 146 l 785 97 l 736 97 l 736 49 l 688 49 l 688 0 l 104 0 l 104 972 l 688 972 m 688 146 l 688 826 l 250 826 l 250 146 l 688 146 z "},"E":{"ha":938,"x_min":104,"x_max":833,"o":"m 833 146 l 833 0 l 104 0 l 104 972 l 833 972 l 833 826 l 250 826 l 250 583 l 785 583 l 785 438 l 250 438 l 250 146 l 833 146 z "},"F":{"ha":938,"x_min":104,"x_max":833,"o":"m 833 972 l 833 826 l 250 826 l 250 535 l 833 535 l 833 389 l 250 389 l 250 0 l 104 0 l 104 972 l 833 972 z "},"G":{"ha":938,"x_min":104,"x_max":833,"o":"m 688 0 l 250 0 l 250 49 l 201 49 l 201 97 l 153 97 l 153 146 l 104 146 l 104 826 l 153 826 l 153 875 l 201 875 l 201 924 l 250 924 l 250 972 l 736 972 l 736 924 l 785 924 l 785 875 l 833 875 l 833 778 l 639 778 l 639 826 l 299 826 l 299 778 l 250 778 l 250 194 l 299 194 l 299 146 l 639 146 l 639 194 l 688 194 l 688 389 l 493 389 l 493 535 l 833 535 l 833 146 l 785 146 l 785 97 l 736 97 l 736 49 l 688 49 l 688 0 z "},"H":{"ha":938,"x_min":104,"x_max":833,"o":"m 688 438 l 250 438 l 250 0 l 104 0 l 104 972 l 250 972 l 250 583 l 688 583 l 688 972 l 833 972 l 833 0 l 688 0 l 688 438 z "},"I":{"ha":299,"x_min":76,"x_max":222,"o":"m 222 972 l 222 0 l 76 0 l 76 972 l 222 972 z "},"J":{"ha":938,"x_min":104,"x_max":833,"o":"m 639 146 l 639 194 l 688 194 l 688 826 l 396 826 l 396 972 l 833 972 l 833 146 l 785 146 l 785 97 l 736 97 l 736 49 l 688 49 l 688 0 l 250 0 l 250 49 l 201 49 l 201 97 l 153 97 l 153 146 l 104 146 l 104 292 l 250 292 l 250 194 l 299 194 l 299 146 l 639 146 z "},"K":{"ha":860,"x_min":97,"x_max":826,"o":"m 97 972 l 243 972 l 243 583 l 292 583 l 292 632 l 340 632 l 340 681 l 389 681 l 389 729 l 438 729 l 438 778 l 486 778 l 486 826 l 535 826 l 535 875 l 583 875 l 583 924 l 632 924 l 632 972 l 826 972 l 826 924 l 778 924 l 778 875 l 729 875 l 729 826 l 681 826 l 681 778 l 632 778 l 632 729 l 583 729 l 583 681 l 535 681 l 535 632 l 486 632 l 486 583 l 438 583 l 438 535 l 389 535 l 389 438 l 438 438 l 438 389 l 486 389 l 486 340 l 535 340 l 535 292 l 583 292 l 583 243 l 632 243 l 632 194 l 681 194 l 681 146 l 729 146 l 729 97 l 778 97 l 778 49 l 826 49 l 826 0 l 632 0 l 632 49 l 583 49 l 583 97 l 535 97 l 535 146 l 486 146 l 486 194 l 438 194 l 438 243 l 389 243 l 389 292 l 340 292 l 340 340 l 292 340 l 292 389 l 243 389 l 243 0 l 97 0 l 97 972 z "},"L":{"ha":938,"x_min":104,"x_max":833,"o":"m 833 146 l 833 0 l 104 0 l 104 972 l 250 972 l 250 146 l 833 146 z "},"M":{"ha":1035,"x_min":104,"x_max":931,"o":"m 104 972 l 250 972 l 250 924 l 299 924 l 299 875 l 347 875 l 347 826 l 396 826 l 396 778 l 444 778 l 444 729 l 493 729 l 493 681 l 542 681 l 542 729 l 590 729 l 590 778 l 639 778 l 639 826 l 688 826 l 688 875 l 736 875 l 736 924 l 785 924 l 785 972 l 931 972 l 931 0 l 785 0 l 785 729 l 736 729 l 736 681 l 688 681 l 688 632 l 639 632 l 639 583 l 590 583 l 590 535 l 444 535 l 444 583 l 396 583 l 396 632 l 347 632 l 347 681 l 299 681 l 299 729 l 250 729 l 250 0 l 104 0 l 104 972 z "},"N":{"ha":938,"x_min":104,"x_max":833,"o":"m 833 972 l 833 0 l 688 0 l 688 194 l 639 194 l 639 243 l 590 243 l 590 292 l 542 292 l 542 340 l 493 340 l 493 389 l 444 389 l 444 438 l 396 438 l 396 486 l 347 486 l 347 535 l 299 535 l 299 583 l 250 583 l 250 0 l 104 0 l 104 972 l 250 972 l 250 778 l 299 778 l 299 729 l 347 729 l 347 681 l 396 681 l 396 632 l 444 632 l 444 583 l 493 583 l 493 535 l 542 535 l 542 486 l 590 486 l 590 438 l 639 438 l 639 389 l 688 389 l 688 972 l 833 972 z "},"O":{"ha":938,"x_min":104,"x_max":833,"o":"m 688 0 l 250 0 l 250 49 l 201 49 l 201 97 l 153 97 l 153 146 l 104 146 l 104 826 l 153 826 l 153 875 l 201 875 l 201 924 l 250 924 l 250 972 l 688 972 l 688 924 l 736 924 l 736 875 l 785 875 l 785 826 l 833 826 l 833 146 l 785 146 l 785 97 l 736 97 l 736 49 l 688 49 l 688 0 m 639 146 l 639 194 l 688 194 l 688 778 l 639 778 l 639 826 l 299 826 l 299 778 l 250 778 l 250 194 l 299 194 l 299 146 l 639 146 z "},"P":{"ha":938,"x_min":104,"x_max":833,"o":"m 688 972 l 688 924 l 736 924 l 736 875 l 785 875 l 785 826 l 833 826 l 833 535 l 785 535 l 785 486 l 736 486 l 736 438 l 688 438 l 688 389 l 250 389 l 250 0 l 104 0 l 104 972 l 688 972 m 250 826 l 250 535 l 639 535 l 639 583 l 688 583 l 688 778 l 639 778 l 639 826 l 250 826 z "},"Q":{"ha":1021,"x_min":104,"x_max":979,"o":"m 542 146 l 542 194 l 493 194 l 493 243 l 444 243 l 444 292 l 639 292 l 639 243 l 688 243 l 688 778 l 639 778 l 639 826 l 299 826 l 299 778 l 250 778 l 250 194 l 299 194 l 299 146 l 542 146 m 250 0 l 250 49 l 201 49 l 201 97 l 153 97 l 153 146 l 104 146 l 104 826 l 153 826 l 153 875 l 201 875 l 201 924 l 250 924 l 250 972 l 688 972 l 688 924 l 736 924 l 736 875 l 785 875 l 785 826 l 833 826 l 833 49 l 882 49 l 882 0 l 931 0 l 931 -49 l 979 -49 l 979 -97 l 785 -97 l 785 -49 l 736 -49 l 736 0 l 250 0 z "},"R":{"ha":938,"x_min":104,"x_max":833,"o":"m 250 826 l 250 535 l 639 535 l 639 583 l 688 583 l 688 778 l 639 778 l 639 826 l 250 826 m 688 972 l 688 924 l 736 924 l 736 875 l 785 875 l 785 826 l 833 826 l 833 535 l 785 535 l 785 486 l 736 486 l 736 438 l 688 438 l 688 389 l 542 389 l 542 340 l 590 340 l 590 292 l 639 292 l 639 243 l 688 243 l 688 194 l 736 194 l 736 146 l 785 146 l 785 97 l 833 97 l 833 0 l 688 0 l 688 49 l 639 49 l 639 97 l 590 97 l 590 146 l 542 146 l 542 194 l 493 194 l 493 243 l 444 243 l 444 292 l 396 292 l 396 340 l 347 340 l 347 389 l 250 389 l 250 0 l 104 0 l 104 972 l 688 972 z "},"S":{"ha":938,"x_min":104,"x_max":833,"o":"m 201 97 l 153 97 l 153 146 l 104 146 l 104 243 l 250 243 l 250 194 l 299 194 l 299 146 l 639 146 l 639 194 l 688 194 l 688 389 l 639 389 l 639 438 l 201 438 l 201 486 l 153 486 l 153 535 l 104 535 l 104 826 l 153 826 l 153 875 l 201 875 l 201 924 l 250 924 l 250 972 l 688 972 l 688 924 l 736 924 l 736 875 l 785 875 l 785 826 l 833 826 l 833 681 l 688 681 l 688 778 l 639 778 l 639 826 l 299 826 l 299 778 l 250 778 l 250 632 l 299 632 l 299 583 l 688 583 l 688 535 l 736 535 l 736 486 l 785 486 l 785 438 l 833 438 l 833 146 l 785 146 l 785 97 l 736 97 l 736 49 l 688 49 l 688 0 l 250 0 l 250 49 l 201 49 l 201 97 z "},"T":{"ha":1007,"x_min":104,"x_max":931,"o":"m 104 826 l 104 972 l 931 972 l 931 826 l 590 826 l 590 0 l 444 0 l 444 826 l 104 826 z "},"U":{"ha":938,"x_min":104,"x_max":833,"o":"m 688 146 l 688 972 l 833 972 l 833 0 l 104 0 l 104 972 l 250 972 l 250 146 l 688 146 z "},"V":{"ha":938,"x_min":104,"x_max":833,"o":"m 201 146 l 201 194 l 153 194 l 153 243 l 104 243 l 104 972 l 250 972 l 250 292 l 299 292 l 299 243 l 347 243 l 347 194 l 396 194 l 396 146 l 542 146 l 542 194 l 590 194 l 590 243 l 639 243 l 639 292 l 688 292 l 688 972 l 833 972 l 833 243 l 785 243 l 785 194 l 736 194 l 736 146 l 688 146 l 688 97 l 639 97 l 639 49 l 590 49 l 590 0 l 347 0 l 347 49 l 299 49 l 299 97 l 250 97 l 250 146 l 201 146 z "},"W":{"ha":1035,"x_min":104,"x_max":931,"o":"m 250 972 l 250 243 l 299 243 l 299 292 l 347 292 l 347 340 l 396 340 l 396 389 l 444 389 l 444 438 l 590 438 l 590 389 l 639 389 l 639 340 l 688 340 l 688 292 l 736 292 l 736 243 l 785 243 l 785 972 l 931 972 l 931 0 l 785 0 l 785 49 l 736 49 l 736 97 l 688 97 l 688 146 l 639 146 l 639 194 l 590 194 l 590 243 l 542 243 l 542 292 l 493 292 l 493 243 l 444 243 l 444 194 l 396 194 l 396 146 l 347 146 l 347 97 l 299 97 l 299 49 l 250 49 l 250 0 l 104 0 l 104 972 l 250 972 z "},"X":{"ha":1035,"x_min":104,"x_max":931,"o":"m 250 632 l 250 681 l 201 681 l 201 729 l 153 729 l 153 778 l 104 778 l 104 972 l 250 972 l 250 826 l 299 826 l 299 778 l 347 778 l 347 729 l 396 729 l 396 681 l 444 681 l 444 632 l 493 632 l 493 583 l 542 583 l 542 632 l 590 632 l 590 681 l 639 681 l 639 729 l 688 729 l 688 778 l 736 778 l 736 826 l 785 826 l 785 972 l 931 972 l 931 778 l 882 778 l 882 729 l 833 729 l 833 681 l 785 681 l 785 632 l 736 632 l 736 583 l 688 583 l 688 535 l 639 535 l 639 438 l 688 438 l 688 389 l 736 389 l 736 340 l 785 340 l 785 292 l 833 292 l 833 243 l 882 243 l 882 194 l 931 194 l 931 0 l 785 0 l 785 146 l 736 146 l 736 194 l 688 194 l 688 243 l 639 243 l 639 292 l 590 292 l 590 340 l 542 340 l 542 389 l 493 389 l 493 340 l 444 340 l 444 292 l 396 292 l 396 243 l 347 243 l 347 194 l 299 194 l 299 146 l 250 146 l 250 0 l 104 0 l 104 194 l 153 194 l 153 243 l 201 243 l 201 292 l 250 292 l 250 340 l 299 340 l 299 389 l 347 389 l 347 438 l 396 438 l 396 535 l 347 535 l 347 583 l 299 583 l 299 632 l 250 632 z "},"Y":{"ha":979,"x_min":76,"x_max":903,"o":"m 222 632 l 222 681 l 174 681 l 174 729 l 125 729 l 125 778 l 76 778 l 76 972 l 222 972 l 222 826 l 271 826 l 271 778 l 319 778 l 319 729 l 368 729 l 368 681 l 417 681 l 417 632 l 465 632 l 465 583 l 514 583 l 514 632 l 563 632 l 563 681 l 611 681 l 611 729 l 660 729 l 660 778 l 708 778 l 708 826 l 757 826 l 757 972 l 903 972 l 903 778 l 854 778 l 854 729 l 806 729 l 806 681 l 757 681 l 757 632 l 708 632 l 708 583 l 660 583 l 660 535 l 611 535 l 611 486 l 563 486 l 563 0 l 417 0 l 417 486 l 368 486 l 368 535 l 319 535 l 319 583 l 271 583 l 271 632 l 222 632 z "},"Z":{"ha":938,"x_min":104,"x_max":833,"o":"m 104 972 l 833 972 l 833 729 l 785 729 l 785 681 l 736 681 l 736 632 l 688 632 l 688 583 l 639 583 l 639 535 l 590 535 l 590 486 l 542 486 l 542 438 l 493 438 l 493 389 l 444 389 l 444 340 l 396 340 l 396 292 l 347 292 l 347 243 l 299 243 l 299 194 l 250 194 l 250 146 l 833 146 l 833 0 l 104 0 l 104 243 l 153 243 l 153 292 l 201 292 l 201 340 l 250 340 l 250 389 l 299 389 l 299 438 l 347 438 l 347 486 l 396 486 l 396 535 l 444 535 l 444 583 l 493 583 l 493 632 l 542 632 l 542 681 l 590 681 l 590 729 l 639 729 l 639 778 l 688 778 l 688 826 l 104 826 l 104 972 z "},"[":{"ha":500,"x_min":104,"x_max":396,"o":"m 104 972 l 396 972 l 396 826 l 250 826 l 250 -194 l 396 -194 l 396 -340 l 104 -340 l 104 972 z "},"\\":{"ha":646,"x_min":104,"x_max":542,"o":"m 153 900 l 201 900 l 201 803 l 250 803 l 250 706 l 299 706 l 299 608 l 347 608 l 347 511 l 396 511 l 396 414 l 444 414 l 444 317 l 493 317 l 493 219 l 542 219 l 542 -24 l 493 -24 l 493 74 l 444 74 l 444 171 l 396 171 l 396 268 l 347 268 l 347 365 l 299 365 l 299 463 l 250 463 l 250 560 l 201 560 l 201 657 l 153 657 l 153 754 l 104 754 l 104 997 l 153 997 l 153 900 z "},"]":{"ha":500,"x_min":104,"x_max":396,"o":"m 396 -340 l 104 -340 l 104 -194 l 250 -194 l 250 826 l 104 826 l 104 972 l 396 972 l 396 -340 z "},"^":{"ha":792,"x_min":104,"x_max":688,"o":"m 444 875 l 493 875 l 493 778 l 542 778 l 542 681 l 590 681 l 590 583 l 639 583 l 639 486 l 688 486 l 688 340 l 590 340 l 590 438 l 542 438 l 542 535 l 493 535 l 493 632 l 444 632 l 444 729 l 347 729 l 347 632 l 299 632 l 299 535 l 250 535 l 250 438 l 201 438 l 201 340 l 104 340 l 104 486 l 153 486 l 153 583 l 201 583 l 201 681 l 250 681 l 250 778 l 299 778 l 299 875 l 347 875 l 347 972 l 444 972 l 444 875 z "},"_":{"ha":792,"x_min":104,"x_max":688,"o":"m 104 -194 l 688 -194 l 688 -340 l 104 -340 l 104 -194 z "},"a":{"ha":938,"x_min":104,"x_max":833,"o":"m 688 292 l 250 292 l 250 146 l 688 146 l 688 292 m 688 583 l 299 583 l 299 535 l 104 535 l 104 632 l 153 632 l 153 681 l 201 681 l 201 729 l 736 729 l 736 681 l 785 681 l 785 632 l 833 632 l 833 0 l 201 0 l 201 49 l 153 49 l 153 97 l 104 97 l 104 340 l 153 340 l 153 389 l 201 389 l 201 438 l 688 438 l 688 583 z "},"b":{"ha":938,"x_min":104,"x_max":833,"o":"m 785 583 l 833 583 l 833 147 l 785 147 l 785 97 l 736 97 l 736 49 l 688 49 l 688 0 l 104 0 l 104 972 l 250 972 l 250 729 l 688 729 l 688 681 l 736 681 l 736 631 l 785 631 l 785 583 m 250 583 l 250 147 l 639 147 l 639 194 l 688 194 l 688 536 l 639 536 l 639 583 l 250 583 z "},"c":{"ha":889,"x_min":104,"x_max":785,"o":"m 153 681 l 201 681 l 201 729 l 688 729 l 688 681 l 736 681 l 736 632 l 785 632 l 785 535 l 590 535 l 590 583 l 299 583 l 299 535 l 250 535 l 250 194 l 299 194 l 299 146 l 590 146 l 590 194 l 785 194 l 785 97 l 736 97 l 736 49 l 688 49 l 688 0 l 201 0 l 201 49 l 153 49 l 153 97 l 104 97 l 104 632 l 153 632 l 153 681 z "},"d":{"ha":938,"x_min":104,"x_max":833,"o":"m 153 632 l 201 632 l 201 681 l 250 681 l 250 729 l 688 729 l 688 972 l 833 972 l 833 0 l 250 0 l 250 49 l 201 49 l 201 97 l 153 97 l 153 146 l 104 146 l 104 583 l 153 583 l 153 632 m 299 583 l 299 535 l 250 535 l 250 194 l 299 194 l 299 146 l 688 146 l 688 583 l 299 583 z "},"e":{"ha":938,"x_min":104,"x_max":833,"o":"m 201 729 l 736 729 l 736 681 l 785 681 l 785 632 l 833 632 l 833 389 l 785 389 l 785 340 l 736 340 l 736 292 l 250 292 l 250 146 l 639 146 l 639 194 l 833 194 l 833 97 l 785 97 l 785 49 l 736 49 l 736 0 l 201 0 l 201 49 l 153 49 l 153 97 l 104 97 l 104 632 l 153 632 l 153 681 l 201 681 l 201 729 m 250 438 l 688 438 l 688 583 l 250 583 l 250 438 z "},"f":{"ha":840,"x_min":104,"x_max":736,"o":"m 736 972 l 736 826 l 250 826 l 250 535 l 736 535 l 736 389 l 250 389 l 250 0 l 104 0 l 104 972 l 736 972 z "},"g":{"ha":938,"x_min":104,"x_max":833,"o":"m 201 -340 l 201 -292 l 153 -292 l 153 -243 l 104 -243 l 104 -146 l 299 -146 l 299 -194 l 639 -194 l 639 -146 l 688 -146 l 688 0 l 201 0 l 201 49 l 153 49 l 153 97 l 104 97 l 104 632 l 153 632 l 153 681 l 201 681 l 201 729 l 736 729 l 736 681 l 785 681 l 785 632 l 833 632 l 833 -243 l 785 -243 l 785 -292 l 736 -292 l 736 -340 l 201 -340 m 250 194 l 299 194 l 299 146 l 639 146 l 639 194 l 688 194 l 688 535 l 639 535 l 639 583 l 299 583 l 299 535 l 250 535 l 250 194 z "},"h":{"ha":938,"x_min":104,"x_max":833,"o":"m 785 631 l 833 631 l 833 0 l 688 0 l 688 535 l 639 535 l 639 583 l 250 583 l 250 0 l 104 0 l 104 972 l 250 972 l 250 729 l 736 729 l 736 681 l 785 681 l 785 631 z "},"i":{"ha":354,"x_min":104,"x_max":250,"o":"m 104 972 l 250 972 l 250 826 l 104 826 l 104 972 m 104 0 l 104 729 l 250 729 l 250 0 l 104 0 z "},"j":{"ha":792,"x_min":104,"x_max":688,"o":"m 542 972 l 688 972 l 688 826 l 542 826 l 542 972 m 104 -340 l 104 -194 l 542 -194 l 542 729 l 688 729 l 688 -340 l 104 -340 z "},"k":{"ha":910,"x_min":104,"x_max":833,"o":"m 250 972 l 250 438 l 396 438 l 396 486 l 444 486 l 444 535 l 493 535 l 493 583 l 542 583 l 542 632 l 590 632 l 590 681 l 785 681 l 785 632 l 736 632 l 736 583 l 688 583 l 688 535 l 639 535 l 639 486 l 590 486 l 590 438 l 542 438 l 542 389 l 493 389 l 493 340 l 542 340 l 542 292 l 590 292 l 590 243 l 639 243 l 639 194 l 688 194 l 688 146 l 736 146 l 736 97 l 785 97 l 785 49 l 833 49 l 833 0 l 639 0 l 639 49 l 590 49 l 590 97 l 542 97 l 542 146 l 493 146 l 493 194 l 444 194 l 444 243 l 396 243 l 396 292 l 250 292 l 250 0 l 104 0 l 104 972 l 250 972 z "},"l":{"ha":500,"x_min":104,"x_max":396,"o":"m 396 146 l 396 0 l 104 0 l 104 972 l 250 972 l 250 146 l 396 146 z "},"m":{"ha":1035,"x_min":104,"x_max":931,"o":"m 104 729 l 931 729 l 931 0 l 785 0 l 785 583 l 590 583 l 590 0 l 444 0 l 444 583 l 250 583 l 250 0 l 104 0 l 104 729 z "},"n":{"ha":938,"x_min":104,"x_max":833,"o":"m 104 729 l 833 729 l 833 0 l 688 0 l 688 583 l 250 583 l 250 0 l 104 0 l 104 729 z "},"o":{"ha":938,"x_min":104,"x_max":833,"o":"m 639 535 l 639 583 l 299 583 l 299 535 l 250 535 l 250 194 l 299 194 l 299 146 l 639 146 l 639 194 l 688 194 l 688 535 l 639 535 m 153 632 l 201 632 l 201 681 l 250 681 l 250 729 l 688 729 l 688 681 l 736 681 l 736 632 l 785 632 l 785 583 l 833 583 l 833 146 l 785 146 l 785 97 l 736 97 l 736 49 l 688 49 l 688 0 l 250 0 l 250 49 l 201 49 l 201 97 l 153 97 l 153 146 l 104 146 l 104 583 l 153 583 l 153 632 z "},"p":{"ha":938,"x_min":104,"x_max":833,"o":"m 639 535 l 639 583 l 250 583 l 250 146 l 639 146 l 639 194 l 688 194 l 688 535 l 639 535 m 104 729 l 688 729 l 688 681 l 736 681 l 736 632 l 785 632 l 785 583 l 833 583 l 833 146 l 785 146 l 785 97 l 736 97 l 736 49 l 688 49 l 688 0 l 250 0 l 250 -340 l 104 -340 l 104 729 z "},"q":{"ha":938,"x_min":104,"x_max":833,"o":"m 688 -340 l 688 0 l 250 0 l 250 49 l 201 49 l 201 97 l 153 97 l 153 146 l 104 146 l 104 583 l 153 583 l 153 632 l 201 632 l 201 681 l 250 681 l 250 729 l 833 729 l 833 -340 l 688 -340 m 250 194 l 299 194 l 299 146 l 688 146 l 688 583 l 299 583 l 299 535 l 250 535 l 250 194 z "},"r":{"ha":938,"x_min":104,"x_max":833,"o":"m 104 729 l 736 729 l 736 681 l 785 681 l 785 632 l 833 632 l 833 438 l 688 438 l 688 535 l 639 535 l 639 583 l 250 583 l 250 0 l 104 0 l 104 729 z "},"s":{"ha":938,"x_min":104,"x_max":833,"o":"m 201 729 l 736 729 l 736 681 l 785 681 l 785 632 l 833 632 l 833 535 l 688 535 l 688 583 l 299 583 l 299 535 l 250 535 l 250 486 l 299 486 l 299 438 l 736 438 l 736 389 l 785 389 l 785 340 l 833 340 l 833 97 l 785 97 l 785 49 l 736 49 l 736 0 l 201 0 l 201 49 l 153 49 l 153 97 l 104 97 l 104 194 l 250 194 l 250 146 l 639 146 l 639 194 l 688 194 l 688 243 l 639 243 l 639 292 l 201 292 l 201 340 l 153 340 l 153 389 l 104 389 l 104 632 l 153 632 l 153 681 l 201 681 l 201 729 z "},"t":{"ha":840,"x_min":104,"x_max":736,"o":"m 104 972 l 250 972 l 250 583 l 736 583 l 736 438 l 250 438 l 250 146 l 736 146 l 736 0 l 104 0 l 104 972 z "},"u":{"ha":938,"x_min":104,"x_max":833,"o":"m 104 729 l 250 729 l 250 146 l 688 146 l 688 729 l 833 729 l 833 0 l 104 0 l 104 729 z "},"v":{"ha":889,"x_min":104,"x_max":833,"o":"m 201 194 l 201 243 l 153 243 l 153 292 l 104 292 l 104 729 l 250 729 l 250 340 l 299 340 l 299 292 l 347 292 l 347 243 l 396 243 l 396 194 l 542 194 l 542 243 l 590 243 l 590 292 l 639 292 l 639 340 l 688 340 l 688 729 l 833 729 l 833 292 l 785 292 l 785 243 l 736 243 l 736 194 l 688 194 l 688 146 l 639 146 l 639 97 l 590 97 l 590 49 l 542 49 l 542 0 l 396 0 l 396 49 l 347 49 l 347 97 l 299 97 l 299 146 l 250 146 l 250 194 l 201 194 z "},"w":{"ha":986,"x_min":104,"x_max":882,"o":"m 299 194 l 299 243 l 347 243 l 347 292 l 396 292 l 396 340 l 444 340 l 444 389 l 542 389 l 542 340 l 590 340 l 590 292 l 639 292 l 639 243 l 688 243 l 688 194 l 736 194 l 736 729 l 882 729 l 882 0 l 688 0 l 688 49 l 639 49 l 639 97 l 590 97 l 590 146 l 542 146 l 542 194 l 444 194 l 444 146 l 396 146 l 396 97 l 347 97 l 347 49 l 299 49 l 299 0 l 104 0 l 104 729 l 250 729 l 250 194 l 299 194 z "},"x":{"ha":986,"x_min":104,"x_max":882,"o":"m 104 729 l 250 729 l 250 681 l 299 681 l 299 632 l 347 632 l 347 583 l 396 583 l 396 535 l 444 535 l 444 486 l 542 486 l 542 535 l 590 535 l 590 583 l 639 583 l 639 632 l 688 632 l 688 681 l 736 681 l 736 729 l 882 729 l 882 632 l 833 632 l 833 583 l 785 583 l 785 535 l 736 535 l 736 486 l 688 486 l 688 438 l 639 438 l 639 389 l 590 389 l 590 340 l 639 340 l 639 292 l 688 292 l 688 243 l 736 243 l 736 194 l 785 194 l 785 146 l 833 146 l 833 97 l 882 97 l 882 0 l 736 0 l 736 49 l 688 49 l 688 97 l 639 97 l 639 146 l 590 146 l 590 194 l 542 194 l 542 243 l 444 243 l 444 194 l 396 194 l 396 146 l 347 146 l 347 97 l 299 97 l 299 49 l 250 49 l 250 0 l 104 0 l 104 97 l 153 97 l 153 146 l 201 146 l 201 194 l 250 194 l 250 243 l 299 243 l 299 292 l 347 292 l 347 340 l 396 340 l 396 389 l 347 389 l 347 438 l 299 438 l 299 486 l 250 486 l 250 535 l 201 535 l 201 583 l 153 583 l 153 632 l 104 632 l 104 729 z "},"y":{"ha":938,"x_min":104,"x_max":833,"o":"m 201 -340 l 201 -292 l 153 -292 l 153 -243 l 104 -243 l 104 -146 l 299 -146 l 299 -194 l 639 -194 l 639 -146 l 688 -146 l 688 0 l 201 0 l 201 49 l 153 49 l 153 97 l 104 97 l 104 729 l 250 729 l 250 194 l 299 194 l 299 146 l 688 146 l 688 729 l 833 729 l 833 -243 l 785 -243 l 785 -292 l 736 -292 l 736 -340 l 201 -340 z "},"z":{"ha":889,"x_min":104,"x_max":785,"o":"m 736 535 l 688 535 l 688 486 l 639 486 l 639 438 l 590 438 l 590 389 l 542 389 l 542 340 l 493 340 l 493 292 l 444 292 l 444 243 l 396 243 l 396 194 l 347 194 l 347 146 l 785 146 l 785 0 l 104 0 l 104 146 l 153 146 l 153 194 l 201 194 l 201 243 l 250 243 l 250 292 l 299 292 l 299 340 l 347 340 l 347 389 l 396 389 l 396 438 l 444 438 l 444 486 l 493 486 l 493 535 l 542 535 l 542 583 l 104 583 l 104 729 l 785 729 l 785 583 l 736 583 l 736 535 z "},"{":{"ha":694,"x_min":104,"x_max":590,"o":"m 347 -194 l 347 -146 l 299 -146 l 299 -97 l 250 -97 l 250 -49 l 201 -49 l 201 243 l 104 243 l 104 389 l 201 389 l 201 681 l 250 681 l 250 729 l 299 729 l 299 778 l 347 778 l 347 826 l 396 826 l 396 875 l 444 875 l 444 924 l 493 924 l 493 972 l 590 972 l 590 826 l 542 826 l 542 778 l 493 778 l 493 729 l 444 729 l 444 681 l 396 681 l 396 632 l 347 632 l 347 0 l 396 0 l 396 -49 l 444 -49 l 444 -97 l 493 -97 l 493 -146 l 542 -146 l 542 -194 l 590 -194 l 590 -340 l 493 -340 l 493 -292 l 444 -292 l 444 -243 l 396 -243 l 396 -194 l 347 -194 z "},"|":{"ha":306,"x_min":104,"x_max":201,"o":"m 201 1021 l 201 -340 l 104 -340 l 104 1021 l 201 1021 z "},"}":{"ha":694,"x_min":104,"x_max":590,"o":"m 347 826 l 347 778 l 396 778 l 396 729 l 444 729 l 444 681 l 493 681 l 493 389 l 590 389 l 590 243 l 493 243 l 493 -49 l 444 -49 l 444 -97 l 396 -97 l 396 -146 l 347 -146 l 347 -194 l 299 -194 l 299 -243 l 250 -243 l 250 -292 l 201 -292 l 201 -340 l 104 -340 l 104 -194 l 153 -194 l 153 -146 l 201 -146 l 201 -97 l 250 -97 l 250 -49 l 299 -49 l 299 0 l 347 0 l 347 632 l 299 632 l 299 681 l 250 681 l 250 729 l 201 729 l 201 778 l 153 778 l 153 826 l 104 826 l 104 972 l 201 972 l 201 924 l 250 924 l 250 875 l 299 875 l 299 826 l 347 826 z "},"¡":{"ha":354,"x_min":104,"x_max":250,"o":"m 250 729 l 250 583 l 104 583 l 104 729 l 250 729 m 250 438 l 250 -243 l 104 -243 l 104 438 l 250 438 z "},"©":{"ha":1156,"x_min":0,"x_max":0,"o":""},"«":{"ha":889,"x_min":104,"x_max":785,"o":"m 590 340 l 590 292 l 639 292 l 639 243 l 688 243 l 688 194 l 736 194 l 736 146 l 785 146 l 785 97 l 639 97 l 639 146 l 590 146 l 590 194 l 542 194 l 542 243 l 493 243 l 493 292 l 444 292 l 444 340 l 396 340 l 396 438 l 444 438 l 444 486 l 493 486 l 493 535 l 542 535 l 542 583 l 590 583 l 590 632 l 639 632 l 639 681 l 785 681 l 785 632 l 736 632 l 736 583 l 688 583 l 688 535 l 639 535 l 639 486 l 590 486 l 590 438 l 542 438 l 542 340 l 590 340 m 299 340 l 299 292 l 347 292 l 347 243 l 396 243 l 396 194 l 444 194 l 444 146 l 493 146 l 493 97 l 347 97 l 347 146 l 299 146 l 299 194 l 250 194 l 250 243 l 201 243 l 201 292 l 153 292 l 153 340 l 104 340 l 104 438 l 153 438 l 153 486 l 201 486 l 201 535 l 250 535 l 250 583 l 299 583 l 299 632 l 347 632 l 347 681 l 493 681 l 493 632 l 444 632 l 444 583 l 396 583 l 396 535 l 347 535 l 347 486 l 299 486 l 299 438 l 250 438 l 250 340 l 299 340 z "},"®":{"ha":1156,"x_min":0,"x_max":0,"o":""},"»":{"ha":889,"x_min":104,"x_max":785,"o":"m 299 438 l 299 486 l 250 486 l 250 535 l 201 535 l 201 583 l 153 583 l 153 632 l 104 632 l 104 681 l 250 681 l 250 632 l 299 632 l 299 583 l 347 583 l 347 535 l 396 535 l 396 486 l 444 486 l 444 438 l 493 438 l 493 340 l 444 340 l 444 292 l 396 292 l 396 243 l 347 243 l 347 194 l 299 194 l 299 146 l 250 146 l 250 97 l 104 97 l 104 146 l 153 146 l 153 194 l 201 194 l 201 243 l 250 243 l 250 292 l 299 292 l 299 340 l 347 340 l 347 438 l 299 438 m 590 438 l 590 486 l 542 486 l 542 535 l 493 535 l 493 583 l 444 583 l 444 632 l 396 632 l 396 681 l 542 681 l 542 632 l 590 632 l 590 583 l 639 583 l 639 535 l 688 535 l 688 486 l 736 486 l 736 438 l 785 438 l 785 340 l 736 340 l 736 292 l 688 292 l 688 243 l 639 243 l 639 194 l 590 194 l 590 146 l 542 146 l 542 97 l 396 97 l 396 146 l 444 146 l 444 194 l 493 194 l 493 243 l 542 243 l 542 292 l 590 292 l 590 340 l 639 340 l 639 438 l 590 438 z "},"¿":{"ha":792,"x_min":104,"x_max":688,"o":"m 493 729 l 493 583 l 347 583 l 347 729 l 493 729 m 250 49 l 250 -97 l 542 -97 l 542 49 l 347 49 l 347 486 l 493 486 l 493 194 l 688 194 l 688 -243 l 104 -243 l 104 49 l 250 49 z "},"×":{"ha":840,"x_min":104,"x_max":736,"o":"m 396 583 l 396 535 l 444 535 l 444 583 l 493 583 l 493 632 l 542 632 l 542 681 l 590 681 l 590 729 l 736 729 l 736 632 l 688 632 l 688 583 l 639 583 l 639 535 l 590 535 l 590 486 l 542 486 l 542 438 l 590 438 l 590 389 l 639 389 l 639 340 l 688 340 l 688 292 l 736 292 l 736 194 l 590 194 l 590 243 l 542 243 l 542 292 l 493 292 l 493 340 l 444 340 l 444 389 l 396 389 l 396 340 l 347 340 l 347 292 l 299 292 l 299 243 l 250 243 l 250 194 l 104 194 l 104 292 l 153 292 l 153 340 l 201 340 l 201 389 l 250 389 l 250 438 l 299 438 l 299 486 l 250 486 l 250 535 l 201 535 l 201 583 l 153 583 l 153 632 l 104 632 l 104 729 l 250 729 l 250 681 l 299 681 l 299 632 l 347 632 l 347 583 l 396 583 z "},"÷":{"ha":840,"x_min":104,"x_max":736,"o":"m 347 778 l 493 778 l 493 632 l 347 632 l 347 778 m 104 535 l 736 535 l 736 389 l 104 389 l 104 535 m 347 292 l 493 292 l 493 146 l 347 146 l 347 292 z "},"˜":{"ha":621,"x_min":0,"x_max":0,"o":""},"Ё":{"ha":938,"x_min":104,"x_max":833,"o":"m 833 146 l 833 0 l 104 0 l 104 972 l 833 972 l 833 826 l 250 826 l 250 583 l 785 583 l 785 438 l 250 438 l 250 146 l 833 146 m 208 1167 l 354 1167 l 354 1021 l 208 1021 l 208 1167 m 590 1167 l 736 1167 l 736 1021 l 590 1021 l 590 1167 z "},"А":{"ha":938,"x_min":104,"x_max":833,"o":"m 250 875 l 299 875 l 299 924 l 347 924 l 347 972 l 590 972 l 590 924 l 639 924 l 639 875 l 688 875 l 688 826 l 736 826 l 736 778 l 785 778 l 785 729 l 833 729 l 833 0 l 688 0 l 688 292 l 250 292 l 250 0 l 104 0 l 104 729 l 153 729 l 153 778 l 201 778 l 201 826 l 250 826 l 250 875 m 396 826 l 396 778 l 347 778 l 347 729 l 299 729 l 299 681 l 250 681 l 250 438 l 688 438 l 688 681 l 639 681 l 639 729 l 590 729 l 590 778 l 542 778 l 542 826 l 396 826 z "},"Б":{"ha":938,"x_min":104,"x_max":833,"o":"m 639 146 l 639 194 l 688 194 l 688 389 l 639 389 l 639 438 l 250 438 l 250 146 l 639 146 m 785 972 l 785 826 l 250 826 l 250 583 l 688 583 l 688 535 l 736 535 l 736 486 l 785 486 l 785 438 l 833 438 l 833 146 l 785 146 l 785 97 l 736 97 l 736 49 l 688 49 l 688 0 l 104 0 l 104 972 l 785 972 z "},"В":{"ha":938,"x_min":104,"x_max":833,"o":"m 639 146 l 639 194 l 688 194 l 688 389 l 639 389 l 639 438 l 250 438 l 250 146 l 639 146 m 250 826 l 250 583 l 493 583 l 493 632 l 542 632 l 542 778 l 493 778 l 493 826 l 250 826 m 542 972 l 542 924 l 590 924 l 590 875 l 639 875 l 639 826 l 688 826 l 688 632 l 639 632 l 639 583 l 590 583 l 590 535 l 736 535 l 736 486 l 785 486 l 785 438 l 833 438 l 833 146 l 785 146 l 785 97 l 736 97 l 736 49 l 688 49 l 688 0 l 104 0 l 104 972 l 542 972 z "},"Г":{"ha":910,"x_min":104,"x_max":833,"o":"m 250 0 l 104 0 l 104 972 l 833 972 l 833 826 l 250 826 l 250 0 z "},"Д":{"ha":1035,"x_min":104,"x_max":931,"o":"m 444 826 l 444 778 l 396 778 l 396 729 l 347 729 l 347 292 l 688 292 l 688 729 l 639 729 l 639 778 l 590 778 l 590 826 l 444 826 m 299 875 l 347 875 l 347 924 l 396 924 l 396 972 l 639 972 l 639 924 l 688 924 l 688 875 l 736 875 l 736 826 l 785 826 l 785 778 l 833 778 l 833 292 l 931 292 l 931 0 l 785 0 l 785 146 l 250 146 l 250 0 l 104 0 l 104 292 l 201 292 l 201 778 l 250 778 l 250 826 l 299 826 l 299 875 z "},"Е":{"ha":938,"x_min":104,"x_max":833,"o":"m 833 146 l 833 0 l 104 0 l 104 972 l 833 972 l 833 826 l 250 826 l 250 583 l 785 583 l 785 438 l 250 438 l 250 146 l 833 146 z "},"Ж":{"ha":1035,"x_min":104,"x_max":931,"o":"m 201 632 l 201 681 l 153 681 l 153 729 l 104 729 l 104 972 l 250 972 l 250 778 l 299 778 l 299 729 l 347 729 l 347 681 l 396 681 l 396 632 l 444 632 l 444 972 l 590 972 l 590 632 l 639 632 l 639 681 l 688 681 l 688 729 l 736 729 l 736 778 l 785 778 l 785 972 l 931 972 l 931 729 l 882 729 l 882 681 l 833 681 l 833 632 l 785 632 l 785 583 l 736 583 l 736 535 l 688 535 l 688 438 l 736 438 l 736 389 l 785 389 l 785 340 l 833 340 l 833 292 l 882 292 l 882 243 l 931 243 l 931 0 l 785 0 l 785 194 l 736 194 l 736 243 l 688 243 l 688 292 l 639 292 l 639 340 l 590 340 l 590 0 l 444 0 l 444 340 l 396 340 l 396 292 l 347 292 l 347 243 l 299 243 l 299 194 l 250 194 l 250 0 l 104 0 l 104 243 l 153 243 l 153 292 l 201 292 l 201 340 l 250 340 l 250 389 l 299 389 l 299 438 l 347 438 l 347 535 l 299 535 l 299 583 l 250 583 l 250 632 l 201 632 z "},"З":{"ha":938,"x_min":104,"x_max":833,"o":"m 688 0 l 104 0 l 104 146 l 639 146 l 639 194 l 688 194 l 688 389 l 639 389 l 639 438 l 299 438 l 299 583 l 639 583 l 639 632 l 688 632 l 688 778 l 639 778 l 639 826 l 104 826 l 104 972 l 688 972 l 688 924 l 736 924 l 736 875 l 785 875 l 785 826 l 833 826 l 833 583 l 785 583 l 785 535 l 736 535 l 736 486 l 785 486 l 785 438 l 833 438 l 833 146 l 785 146 l 785 97 l 736 97 l 736 49 l 688 49 l 688 0 z "},"И":{"ha":938,"x_min":104,"x_max":833,"o":"m 250 389 l 299 389 l 299 438 l 347 438 l 347 486 l 396 486 l 396 535 l 444 535 l 444 583 l 493 583 l 493 632 l 542 632 l 542 681 l 590 681 l 590 729 l 639 729 l 639 778 l 688 778 l 688 972 l 833 972 l 833 0 l 688 0 l 688 583 l 639 583 l 639 535 l 590 535 l 590 486 l 542 486 l 542 438 l 493 438 l 493 389 l 444 389 l 444 340 l 396 340 l 396 292 l 347 292 l 347 243 l 299 243 l 299 194 l 250 194 l 250 0 l 104 0 l 104 972 l 250 972 l 250 389 z "},"Й":{"ha":938,"x_min":104,"x_max":833,"o":"m 250 389 l 299 389 l 299 438 l 347 438 l 347 486 l 396 486 l 396 535 l 444 535 l 444 583 l 493 583 l 493 632 l 542 632 l 542 681 l 590 681 l 590 729 l 639 729 l 639 778 l 688 778 l 688 972 l 833 972 l 833 0 l 688 0 l 688 583 l 639 583 l 639 535 l 590 535 l 590 486 l 542 486 l 542 438 l 493 438 l 493 389 l 444 389 l 444 340 l 396 340 l 396 292 l 347 292 l 347 243 l 299 243 l 299 194 l 250 194 l 250 0 l 104 0 l 104 972 l 250 972 l 250 389 m 639 1167 l 639 1069 l 299 1069 l 299 1167 l 639 1167 z "},"К":{"ha":910,"x_min":104,"x_max":833,"o":"m 104 972 l 250 972 l 250 583 l 299 583 l 299 632 l 347 632 l 347 681 l 396 681 l 396 729 l 444 729 l 444 778 l 493 778 l 493 826 l 542 826 l 542 875 l 590 875 l 590 924 l 639 924 l 639 972 l 833 972 l 833 924 l 785 924 l 785 875 l 736 875 l 736 826 l 688 826 l 688 778 l 639 778 l 639 729 l 590 729 l 590 681 l 542 681 l 542 632 l 493 632 l 493 583 l 444 583 l 444 535 l 396 535 l 396 438 l 444 438 l 444 389 l 493 389 l 493 340 l 542 340 l 542 292 l 590 292 l 590 243 l 639 243 l 639 194 l 688 194 l 688 146 l 736 146 l 736 97 l 785 97 l 785 49 l 833 49 l 833 0 l 639 0 l 639 49 l 590 49 l 590 97 l 542 97 l 542 146 l 493 146 l 493 194 l 444 194 l 444 243 l 396 243 l 396 292 l 347 292 l 347 340 l 299 340 l 299 389 l 250 389 l 250 0 l 104 0 l 104 972 z "},"Л":{"ha":938,"x_min":104,"x_max":833,"o":"m 250 875 l 299 875 l 299 924 l 347 924 l 347 972 l 590 972 l 590 924 l 639 924 l 639 875 l 688 875 l 688 826 l 736 826 l 736 778 l 785 778 l 785 729 l 833 729 l 833 0 l 688 0 l 688 681 l 639 681 l 639 729 l 590 729 l 590 778 l 542 778 l 542 826 l 396 826 l 396 778 l 347 778 l 347 729 l 299 729 l 299 681 l 250 681 l 250 0 l 104 0 l 104 729 l 153 729 l 153 778 l 201 778 l 201 826 l 250 826 l 250 875 z "},"М":{"ha":1035,"x_min":104,"x_max":931,"o":"m 104 972 l 250 972 l 250 924 l 299 924 l 299 875 l 347 875 l 347 826 l 396 826 l 396 778 l 444 778 l 444 729 l 493 729 l 493 681 l 542 681 l 542 729 l 590 729 l 590 778 l 639 778 l 639 826 l 688 826 l 688 875 l 736 875 l 736 924 l 785 924 l 785 972 l 931 972 l 931 0 l 785 0 l 785 729 l 736 729 l 736 681 l 688 681 l 688 632 l 639 632 l 639 583 l 590 583 l 590 535 l 444 535 l 444 583 l 396 583 l 396 632 l 347 632 l 347 681 l 299 681 l 299 729 l 250 729 l 250 0 l 104 0 l 104 972 z "},"Н":{"ha":938,"x_min":104,"x_max":833,"o":"m 688 438 l 250 438 l 250 0 l 104 0 l 104 972 l 250 972 l 250 583 l 688 583 l 688 972 l 833 972 l 833 0 l 688 0 l 688 438 z "},"О":{"ha":938,"x_min":104,"x_max":833,"o":"m 688 0 l 250 0 l 250 49 l 201 49 l 201 97 l 153 97 l 153 146 l 104 146 l 104 826 l 153 826 l 153 875 l 201 875 l 201 924 l 250 924 l 250 972 l 688 972 l 688 924 l 736 924 l 736 875 l 785 875 l 785 826 l 833 826 l 833 146 l 785 146 l 785 97 l 736 97 l 736 49 l 688 49 l 688 0 m 639 146 l 639 194 l 688 194 l 688 778 l 639 778 l 639 826 l 299 826 l 299 778 l 250 778 l 250 194 l 299 194 l 299 146 l 639 146 z "},"П":{"ha":938,"x_min":104,"x_max":833,"o":"m 688 826 l 250 826 l 250 0 l 104 0 l 104 972 l 833 972 l 833 0 l 688 0 l 688 826 z "},"Р":{"ha":938,"x_min":104,"x_max":833,"o":"m 688 972 l 688 924 l 736 924 l 736 875 l 785 875 l 785 826 l 833 826 l 833 535 l 785 535 l 785 486 l 736 486 l 736 438 l 688 438 l 688 389 l 250 389 l 250 0 l 104 0 l 104 972 l 688 972 m 250 826 l 250 535 l 639 535 l 639 583 l 688 583 l 688 778 l 639 778 l 639 826 l 250 826 z "},"С":{"ha":938,"x_min":104,"x_max":833,"o":"m 736 0 l 250 0 l 250 49 l 201 49 l 201 97 l 153 97 l 153 146 l 104 146 l 104 826 l 153 826 l 153 875 l 201 875 l 201 924 l 250 924 l 250 972 l 736 972 l 736 924 l 785 924 l 785 875 l 833 875 l 833 778 l 639 778 l 639 826 l 299 826 l 299 778 l 250 778 l 250 194 l 299 194 l 299 146 l 639 146 l 639 194 l 833 194 l 833 97 l 785 97 l 785 49 l 736 49 l 736 0 z "},"Т":{"ha":1035,"x_min":104,"x_max":931,"o":"m 104 826 l 104 972 l 931 972 l 931 826 l 590 826 l 590 0 l 444 0 l 444 826 l 104 826 z "},"У":{"ha":938,"x_min":104,"x_max":833,"o":"m 785 97 l 785 49 l 736 49 l 736 0 l 201 0 l 201 49 l 153 49 l 153 97 l 104 97 l 104 194 l 299 194 l 299 146 l 639 146 l 639 194 l 688 194 l 688 389 l 201 389 l 201 438 l 153 438 l 153 486 l 104 486 l 104 972 l 250 972 l 250 583 l 299 583 l 299 535 l 688 535 l 688 972 l 833 972 l 833 97 l 785 97 z "},"Ф":{"ha":1035,"x_min":104,"x_max":931,"o":"m 444 778 l 299 778 l 299 729 l 250 729 l 250 292 l 299 292 l 299 243 l 444 243 l 444 778 m 736 243 l 736 292 l 785 292 l 785 729 l 736 729 l 736 778 l 590 778 l 590 243 l 736 243 m 153 826 l 201 826 l 201 875 l 250 875 l 250 924 l 444 924 l 444 972 l 590 972 l 590 924 l 785 924 l 785 875 l 833 875 l 833 826 l 882 826 l 882 778 l 931 778 l 931 243 l 882 243 l 882 194 l 833 194 l 833 146 l 785 146 l 785 97 l 590 97 l 590 0 l 444 0 l 444 97 l 250 97 l 250 146 l 201 146 l 201 194 l 153 194 l 153 243 l 104 243 l 104 778 l 153 778 l 153 826 z "},"Х":{"ha":1035,"x_min":104,"x_max":931,"o":"m 250 632 l 250 681 l 201 681 l 201 729 l 153 729 l 153 778 l 104 778 l 104 972 l 250 972 l 250 826 l 299 826 l 299 778 l 347 778 l 347 729 l 396 729 l 396 681 l 444 681 l 444 632 l 493 632 l 493 583 l 542 583 l 542 632 l 590 632 l 590 681 l 639 681 l 639 729 l 688 729 l 688 778 l 736 778 l 736 826 l 785 826 l 785 972 l 931 972 l 931 778 l 882 778 l 882 729 l 833 729 l 833 681 l 785 681 l 785 632 l 736 632 l 736 583 l 688 583 l 688 535 l 639 535 l 639 438 l 688 438 l 688 389 l 736 389 l 736 340 l 785 340 l 785 292 l 833 292 l 833 243 l 882 243 l 882 194 l 931 194 l 931 0 l 785 0 l 785 146 l 736 146 l 736 194 l 688 194 l 688 243 l 639 243 l 639 292 l 590 292 l 590 340 l 542 340 l 542 389 l 493 389 l 493 340 l 444 340 l 444 292 l 396 292 l 396 243 l 347 243 l 347 194 l 299 194 l 299 146 l 250 146 l 250 0 l 104 0 l 104 194 l 153 194 l 153 243 l 201 243 l 201 292 l 250 292 l 250 340 l 299 340 l 299 389 l 347 389 l 347 438 l 396 438 l 396 535 l 347 535 l 347 583 l 299 583 l 299 632 l 250 632 z "},"Ц":{"ha":1056,"x_min":104,"x_max":979,"o":"m 250 146 l 688 146 l 688 972 l 833 972 l 833 146 l 979 146 l 979 -146 l 833 -146 l 833 0 l 104 0 l 104 972 l 250 972 l 250 146 z "},"Ч":{"ha":938,"x_min":104,"x_max":833,"o":"m 833 0 l 688 0 l 688 340 l 104 340 l 104 972 l 250 972 l 250 486 l 688 486 l 688 972 l 833 972 l 833 0 z "},"Ш":{"ha":1132,"x_min":104,"x_max":1028,"o":"m 104 972 l 250 972 l 250 146 l 493 146 l 493 972 l 639 972 l 639 146 l 882 146 l 882 972 l 1028 972 l 1028 0 l 104 0 l 104 972 z "},"Щ":{"ha":1250,"x_min":104,"x_max":1174,"o":"m 104 972 l 250 972 l 250 146 l 493 146 l 493 972 l 639 972 l 639 146 l 882 146 l 882 972 l 1028 972 l 1028 146 l 1174 146 l 1174 -146 l 1028 -146 l 1028 0 l 104 0 l 104 972 z "},"Ъ":{"ha":1056,"x_min":76,"x_max":951,"o":"m 757 194 l 806 194 l 806 389 l 757 389 l 757 438 l 368 438 l 368 146 l 757 146 l 757 194 m 76 826 l 76 972 l 368 972 l 368 583 l 806 583 l 806 535 l 854 535 l 854 486 l 903 486 l 903 438 l 951 438 l 951 146 l 903 146 l 903 97 l 854 97 l 854 49 l 806 49 l 806 0 l 222 0 l 222 826 l 76 826 z "},"Ы":{"ha":1181,"x_min":104,"x_max":1076,"o":"m 639 194 l 688 194 l 688 389 l 639 389 l 639 438 l 250 438 l 250 146 l 639 146 l 639 194 m 931 972 l 1076 972 l 1076 0 l 931 0 l 931 972 m 104 972 l 250 972 l 250 583 l 688 583 l 688 535 l 736 535 l 736 486 l 785 486 l 785 438 l 833 438 l 833 146 l 785 146 l 785 97 l 736 97 l 736 49 l 688 49 l 688 0 l 104 0 l 104 972 z "},"Ь":{"ha":938,"x_min":103,"x_max":835,"o":"m 688 0 l 688 49 l 736 49 l 736 97 l 785 97 l 785 146 l 833 146 l 833 438 l 785 438 l 785 486 l 736 486 l 736 535 l 688 535 l 688 583 l 250 583 l 250 972 l 104 972 l 104 0 l 688 0 m 250 146 l 250 438 l 639 438 l 639 389 l 688 389 l 688 194 l 639 194 l 639 146 l 250 146 z "},"Э":{"ha":938,"x_min":104,"x_max":833,"o":"m 688 0 l 201 0 l 201 49 l 153 49 l 153 97 l 104 97 l 104 194 l 299 194 l 299 146 l 639 146 l 639 194 l 688 194 l 688 389 l 250 389 l 250 535 l 688 535 l 688 778 l 639 778 l 639 826 l 299 826 l 299 778 l 104 778 l 104 875 l 153 875 l 153 924 l 201 924 l 201 972 l 688 972 l 688 924 l 736 924 l 736 875 l 785 875 l 785 826 l 833 826 l 833 146 l 785 146 l 785 97 l 736 97 l 736 49 l 688 49 l 688 0 z "},"Ю":{"ha":1083,"x_min":104,"x_max":979,"o":"m 833 778 l 785 778 l 785 826 l 590 826 l 590 778 l 542 778 l 542 194 l 590 194 l 590 146 l 785 146 l 785 194 l 833 194 l 833 778 m 104 972 l 250 972 l 250 535 l 396 535 l 396 826 l 444 826 l 444 875 l 493 875 l 493 924 l 542 924 l 542 972 l 833 972 l 833 924 l 882 924 l 882 875 l 931 875 l 931 826 l 979 826 l 979 146 l 931 146 l 931 97 l 882 97 l 882 49 l 833 49 l 833 0 l 542 0 l 542 49 l 493 49 l 493 97 l 444 97 l 444 146 l 396 146 l 396 389 l 250 389 l 250 0 l 104 0 l 104 972 z "},"Я":{"ha":924,"x_min":89,"x_max":821,"o":"m 674 826 l 674 535 l 285 535 l 285 583 l 236 583 l 236 778 l 285 778 l 285 826 l 674 826 m 236 972 l 236 924 l 188 924 l 188 875 l 139 875 l 139 826 l 90 826 l 90 535 l 139 535 l 139 486 l 188 486 l 188 438 l 236 438 l 236 389 l 382 389 l 382 340 l 333 340 l 333 292 l 285 292 l 285 243 l 236 243 l 236 194 l 188 194 l 188 146 l 139 146 l 139 97 l 90 97 l 90 0 l 236 0 l 236 49 l 285 49 l 285 97 l 333 97 l 333 146 l 382 146 l 382 194 l 431 194 l 431 243 l 479 243 l 479 292 l 528 292 l 528 340 l 576 340 l 576 389 l 674 389 l 674 0 l 819 0 l 819 972 l 236 972 z "},"а":{"ha":938,"x_min":104,"x_max":833,"o":"m 688 292 l 250 292 l 250 146 l 688 146 l 688 292 m 688 583 l 299 583 l 299 535 l 104 535 l 104 632 l 153 632 l 153 681 l 201 681 l 201 729 l 736 729 l 736 681 l 785 681 l 785 632 l 833 632 l 833 0 l 201 0 l 201 49 l 153 49 l 153 97 l 104 97 l 104 340 l 153 340 l 153 389 l 201 389 l 201 438 l 688 438 l 688 583 z "},"б":{"ha":938,"x_min":104,"x_max":833,"o":"m 736 438 l 736 389 l 785 389 l 785 340 l 833 340 l 833 97 l 785 97 l 785 49 l 736 49 l 736 0 l 104 0 l 104 729 l 785 729 l 785 583 l 250 583 l 250 438 l 736 438 m 688 146 l 688 292 l 250 292 l 250 146 l 688 146 z "},"в":{"ha":938,"x_min":104,"x_max":833,"o":"m 542 438 l 542 583 l 250 583 l 250 438 l 542 438 m 688 632 l 688 438 l 736 438 l 736 389 l 785 389 l 785 340 l 833 340 l 833 97 l 785 97 l 785 49 l 736 49 l 736 0 l 104 0 l 104 729 l 590 729 l 590 681 l 639 681 l 639 632 l 688 632 m 688 146 l 688 292 l 250 292 l 250 146 l 688 146 z "},"г":{"ha":764,"x_min":104,"x_max":688,"o":"m 104 729 l 688 729 l 688 583 l 250 583 l 250 0 l 104 0 l 104 729 z "},"д":{"ha":1035,"x_min":104,"x_max":931,"o":"m 299 583 l 347 583 l 347 632 l 396 632 l 396 681 l 444 681 l 444 729 l 590 729 l 590 681 l 639 681 l 639 632 l 688 632 l 688 583 l 736 583 l 736 535 l 785 535 l 785 486 l 833 486 l 833 146 l 931 146 l 931 -97 l 785 -97 l 785 0 l 250 0 l 250 -97 l 104 -97 l 104 146 l 201 146 l 201 486 l 250 486 l 250 535 l 299 535 l 299 583 m 444 535 l 444 486 l 396 486 l 396 438 l 347 438 l 347 146 l 688 146 l 688 438 l 639 438 l 639 486 l 590 486 l 590 535 l 444 535 z "},"е":{"ha":938,"x_min":104,"x_max":833,"o":"m 201 729 l 736 729 l 736 681 l 785 681 l 785 632 l 833 632 l 833 389 l 785 389 l 785 340 l 736 340 l 736 292 l 250 292 l 250 146 l 639 146 l 639 194 l 833 194 l 833 97 l 785 97 l 785 49 l 736 49 l 736 0 l 201 0 l 201 49 l 153 49 l 153 97 l 104 97 l 104 632 l 153 632 l 153 681 l 201 681 l 201 729 m 250 438 l 688 438 l 688 583 l 250 583 l 250 438 z "},"ж":{"ha":1035,"x_min":104,"x_max":931,"o":"m 444 729 l 590 729 l 590 535 l 639 535 l 639 583 l 688 583 l 688 632 l 736 632 l 736 681 l 785 681 l 785 729 l 931 729 l 931 632 l 882 632 l 882 583 l 833 583 l 833 535 l 785 535 l 785 486 l 736 486 l 736 438 l 688 438 l 688 389 l 639 389 l 639 340 l 688 340 l 688 292 l 736 292 l 736 243 l 785 243 l 785 194 l 833 194 l 833 146 l 882 146 l 882 97 l 931 97 l 931 0 l 785 0 l 785 49 l 736 49 l 736 97 l 688 97 l 688 146 l 639 146 l 639 194 l 590 194 l 590 0 l 444 0 l 444 194 l 396 194 l 396 146 l 347 146 l 347 97 l 299 97 l 299 49 l 250 49 l 250 0 l 104 0 l 104 97 l 153 97 l 153 146 l 201 146 l 201 194 l 250 194 l 250 243 l 299 243 l 299 292 l 347 292 l 347 340 l 396 340 l 396 389 l 347 389 l 347 438 l 299 438 l 299 486 l 250 486 l 250 535 l 201 535 l 201 583 l 153 583 l 153 632 l 104 632 l 104 729 l 250 729 l 250 681 l 299 681 l 299 632 l 347 632 l 347 583 l 396 583 l 396 535 l 444 535 l 444 729 z "},"з":{"ha":938,"x_min":104,"x_max":833,"o":"m 736 0 l 104 0 l 104 146 l 688 146 l 688 292 l 250 292 l 250 438 l 688 438 l 688 583 l 104 583 l 104 729 l 736 729 l 736 681 l 785 681 l 785 632 l 833 632 l 833 389 l 785 389 l 785 340 l 833 340 l 833 97 l 785 97 l 785 49 l 736 49 l 736 0 z "},"и":{"ha":889,"x_min":104,"x_max":785,"o":"m 104 729 l 250 729 l 250 292 l 299 292 l 299 340 l 347 340 l 347 389 l 396 389 l 396 438 l 444 438 l 444 486 l 493 486 l 493 535 l 542 535 l 542 583 l 590 583 l 590 632 l 639 632 l 639 729 l 785 729 l 785 0 l 639 0 l 639 438 l 590 438 l 590 389 l 542 389 l 542 340 l 493 340 l 493 292 l 444 292 l 444 243 l 396 243 l 396 194 l 347 194 l 347 146 l 299 146 l 299 97 l 250 97 l 250 0 l 104 0 l 104 729 z "},"й":{"ha":889,"x_min":104,"x_max":785,"o":"m 104 729 l 250 729 l 250 292 l 299 292 l 299 340 l 347 340 l 347 389 l 396 389 l 396 438 l 444 438 l 444 486 l 493 486 l 493 535 l 542 535 l 542 583 l 590 583 l 590 632 l 639 632 l 639 729 l 785 729 l 785 0 l 639 0 l 639 438 l 590 438 l 590 389 l 542 389 l 542 340 l 493 340 l 493 292 l 444 292 l 444 243 l 396 243 l 396 194 l 347 194 l 347 146 l 299 146 l 299 97 l 250 97 l 250 0 l 104 0 l 104 729 m 299 924 l 590 924 l 590 826 l 299 826 l 299 924 z "},"к":{"ha":813,"x_min":104,"x_max":736,"o":"m 250 0 l 104 0 l 104 729 l 250 729 l 250 438 l 299 438 l 299 486 l 347 486 l 347 535 l 396 535 l 396 583 l 444 583 l 444 632 l 493 632 l 493 681 l 542 681 l 542 729 l 736 729 l 736 681 l 688 681 l 688 632 l 639 632 l 639 583 l 590 583 l 590 535 l 542 535 l 542 486 l 493 486 l 493 438 l 444 438 l 444 389 l 396 389 l 396 340 l 444 340 l 444 292 l 493 292 l 493 243 l 542 243 l 542 194 l 590 194 l 590 146 l 639 146 l 639 97 l 688 97 l 688 49 l 736 49 l 736 0 l 542 0 l 542 49 l 493 49 l 493 97 l 444 97 l 444 146 l 396 146 l 396 194 l 347 194 l 347 243 l 299 243 l 299 292 l 250 292 l 250 0 z "},"л":{"ha":938,"x_min":104,"x_max":833,"o":"m 250 583 l 299 583 l 299 632 l 347 632 l 347 681 l 396 681 l 396 729 l 542 729 l 542 681 l 590 681 l 590 632 l 639 632 l 639 583 l 688 583 l 688 535 l 736 535 l 736 486 l 785 486 l 785 438 l 833 438 l 833 0 l 688 0 l 688 389 l 639 389 l 639 438 l 590 438 l 590 486 l 542 486 l 542 535 l 396 535 l 396 486 l 347 486 l 347 438 l 299 438 l 299 389 l 250 389 l 250 0 l 104 0 l 104 438 l 153 438 l 153 486 l 201 486 l 201 535 l 250 535 l 250 583 z "},"м":{"ha":1035,"x_min":104,"x_max":931,"o":"m 104 729 l 250 729 l 250 681 l 299 681 l 299 632 l 347 632 l 347 583 l 396 583 l 396 535 l 444 535 l 444 486 l 493 486 l 493 438 l 542 438 l 542 486 l 590 486 l 590 535 l 639 535 l 639 583 l 688 583 l 688 632 l 736 632 l 736 681 l 785 681 l 785 729 l 931 729 l 931 0 l 785 0 l 785 486 l 736 486 l 736 438 l 688 438 l 688 389 l 639 389 l 639 340 l 590 340 l 590 292 l 542 292 l 542 243 l 493 243 l 493 292 l 444 292 l 444 340 l 396 340 l 396 389 l 347 389 l 347 438 l 299 438 l 299 486 l 250 486 l 250 0 l 104 0 l 104 729 z "},"н":{"ha":938,"x_min":104,"x_max":833,"o":"m 104 729 l 250 729 l 250 438 l 688 438 l 688 729 l 833 729 l 833 0 l 688 0 l 688 292 l 250 292 l 250 0 l 104 0 l 104 729 z "},"о":{"ha":938,"x_min":104,"x_max":833,"o":"m 639 535 l 639 583 l 299 583 l 299 535 l 250 535 l 250 194 l 299 194 l 299 146 l 639 146 l 639 194 l 688 194 l 688 535 l 639 535 m 153 632 l 201 632 l 201 681 l 250 681 l 250 729 l 688 729 l 688 681 l 736 681 l 736 632 l 785 632 l 785 583 l 833 583 l 833 146 l 785 146 l 785 97 l 736 97 l 736 49 l 688 49 l 688 0 l 250 0 l 250 49 l 201 49 l 201 97 l 153 97 l 153 146 l 104 146 l 104 583 l 153 583 l 153 632 z "},"п":{"ha":938,"x_min":104,"x_max":833,"o":"m 104 729 l 833 729 l 833 0 l 688 0 l 688 583 l 250 583 l 250 0 l 104 0 l 104 729 z "},"р":{"ha":938,"x_min":104,"x_max":833,"o":"m 639 535 l 639 583 l 250 583 l 250 146 l 639 146 l 639 194 l 688 194 l 688 535 l 639 535 m 104 729 l 688 729 l 688 681 l 736 681 l 736 632 l 785 632 l 785 583 l 833 583 l 833 146 l 785 146 l 785 97 l 736 97 l 736 49 l 688 49 l 688 0 l 250 0 l 250 -340 l 104 -340 l 104 729 z "},"с":{"ha":889,"x_min":104,"x_max":785,"o":"m 153 681 l 201 681 l 201 729 l 688 729 l 688 681 l 736 681 l 736 632 l 785 632 l 785 535 l 590 535 l 590 583 l 299 583 l 299 535 l 250 535 l 250 194 l 299 194 l 299 146 l 590 146 l 590 194 l 785 194 l 785 97 l 736 97 l 736 49 l 688 49 l 688 0 l 201 0 l 201 49 l 153 49 l 153 97 l 104 97 l 104 632 l 153 632 l 153 681 z "},"т":{"ha":910,"x_min":90,"x_max":819,"o":"m 90 583 l 90 729 l 819 729 l 819 583 l 528 583 l 528 0 l 382 0 l 382 583 l 90 583 z "},"у":{"ha":938,"x_min":104,"x_max":833,"o":"m 201 -340 l 201 -292 l 153 -292 l 153 -243 l 104 -243 l 104 -146 l 299 -146 l 299 -194 l 639 -194 l 639 -146 l 688 -146 l 688 0 l 201 0 l 201 49 l 153 49 l 153 97 l 104 97 l 104 729 l 250 729 l 250 194 l 299 194 l 299 146 l 688 146 l 688 729 l 833 729 l 833 -243 l 785 -243 l 785 -292 l 736 -292 l 736 -340 l 201 -340 z "},"ф":{"ha":1035,"x_min":104,"x_max":931,"o":"m 153 681 l 201 681 l 201 729 l 444 729 l 444 1021 l 590 1021 l 590 729 l 833 729 l 833 681 l 882 681 l 882 632 l 931 632 l 931 97 l 882 97 l 882 49 l 833 49 l 833 0 l 590 0 l 590 -340 l 444 -340 l 444 0 l 201 0 l 201 49 l 153 49 l 153 97 l 104 97 l 104 632 l 153 632 l 153 681 m 299 583 l 299 535 l 250 535 l 250 194 l 299 194 l 299 146 l 444 146 l 444 583 l 299 583 m 736 535 l 736 583 l 590 583 l 590 146 l 736 146 l 736 194 l 785 194 l 785 535 l 736 535 z "},"х":{"ha":931,"x_min":76,"x_max":854,"o":"m 76 729 l 222 729 l 222 681 l 271 681 l 271 632 l 319 632 l 319 583 l 368 583 l 368 535 l 417 535 l 417 486 l 514 486 l 514 535 l 563 535 l 563 583 l 611 583 l 611 632 l 660 632 l 660 681 l 708 681 l 708 729 l 854 729 l 854 632 l 806 632 l 806 583 l 757 583 l 757 535 l 708 535 l 708 486 l 660 486 l 660 438 l 611 438 l 611 389 l 563 389 l 563 340 l 611 340 l 611 292 l 660 292 l 660 243 l 708 243 l 708 194 l 757 194 l 757 146 l 806 146 l 806 97 l 854 97 l 854 0 l 708 0 l 708 49 l 660 49 l 660 97 l 611 97 l 611 146 l 563 146 l 563 194 l 514 194 l 514 243 l 417 243 l 417 194 l 368 194 l 368 146 l 319 146 l 319 97 l 271 97 l 271 49 l 222 49 l 222 0 l 76 0 l 76 97 l 125 97 l 125 146 l 174 146 l 174 194 l 222 194 l 222 243 l 271 243 l 271 292 l 319 292 l 319 340 l 368 340 l 368 389 l 319 389 l 319 438 l 271 438 l 271 486 l 222 486 l 222 535 l 174 535 l 174 583 l 125 583 l 125 632 l 76 632 l 76 729 z "},"ц":{"ha":958,"x_min":104,"x_max":882,"o":"m 104 729 l 250 729 l 250 146 l 639 146 l 639 729 l 785 729 l 785 146 l 882 146 l 882 -146 l 736 -146 l 736 0 l 104 0 l 104 729 z "},"ч":{"ha":889,"x_min":104,"x_max":785,"o":"m 639 243 l 104 243 l 104 729 l 250 729 l 250 389 l 639 389 l 639 729 l 785 729 l 785 0 l 639 0 l 639 243 z "},"ш":{"ha":1035,"x_min":104,"x_max":931,"o":"m 104 729 l 250 729 l 250 146 l 444 146 l 444 729 l 590 729 l 590 146 l 785 146 l 785 729 l 931 729 l 931 0 l 104 0 l 104 729 z "},"щ":{"ha":1153,"x_min":104,"x_max":1076,"o":"m 104 729 l 250 729 l 250 146 l 444 146 l 444 729 l 590 729 l 590 146 l 785 146 l 785 729 l 931 729 l 931 146 l 1076 146 l 1076 -146 l 931 -146 l 931 0 l 104 0 l 104 729 z "},"ъ":{"ha":1007,"x_min":76,"x_max":903,"o":"m 76 583 l 76 729 l 368 729 l 368 486 l 806 486 l 806 438 l 854 438 l 854 389 l 903 389 l 903 97 l 854 97 l 854 49 l 806 49 l 806 0 l 222 0 l 222 583 l 76 583 m 757 340 l 368 340 l 368 146 l 757 146 l 757 340 z "},"ы":{"ha":1083,"x_min":104,"x_max":979,"o":"m 250 340 l 250 146 l 590 146 l 590 340 l 250 340 m 833 729 l 979 729 l 979 0 l 833 0 l 833 729 m 104 729 l 250 729 l 250 486 l 639 486 l 639 438 l 688 438 l 688 389 l 736 389 l 736 97 l 688 97 l 688 49 l 639 49 l 639 0 l 104 0 l 104 729 z "},"ь":{"ha":889,"x_min":104,"x_max":785,"o":"m 639 340 l 250 340 l 250 146 l 639 146 l 639 340 m 104 729 l 250 729 l 250 486 l 688 486 l 688 438 l 736 438 l 736 389 l 785 389 l 785 97 l 736 97 l 736 49 l 688 49 l 688 0 l 104 0 l 104 729 z "},"э":{"ha":938,"x_min":104,"x_max":833,"o":"m 153 681 l 201 681 l 201 729 l 688 729 l 688 681 l 736 681 l 736 632 l 785 632 l 785 583 l 833 583 l 833 146 l 785 146 l 785 97 l 736 97 l 736 49 l 688 49 l 688 0 l 201 0 l 201 49 l 153 49 l 153 97 l 104 97 l 104 194 l 299 194 l 299 146 l 639 146 l 639 194 l 688 194 l 688 292 l 250 292 l 250 438 l 688 438 l 688 535 l 639 535 l 639 583 l 299 583 l 299 535 l 104 535 l 104 632 l 153 632 l 153 681 z "},"ю":{"ha":1083,"x_min":104,"x_max":979,"o":"m 104 729 l 250 729 l 250 438 l 396 438 l 396 632 l 444 632 l 444 681 l 493 681 l 493 729 l 882 729 l 882 681 l 931 681 l 931 632 l 979 632 l 979 97 l 931 97 l 931 49 l 882 49 l 882 0 l 493 0 l 493 49 l 444 49 l 444 97 l 396 97 l 396 292 l 250 292 l 250 0 l 104 0 l 104 729 m 833 535 l 785 535 l 785 583 l 590 583 l 590 535 l 542 535 l 542 194 l 590 194 l 590 146 l 785 146 l 785 194 l 833 194 l 833 535 z "},"я":{"ha":889,"x_min":104,"x_max":785,"o":"m 250 389 l 639 389 l 639 583 l 250 583 l 250 389 m 785 0 l 639 0 l 639 243 l 493 243 l 493 194 l 444 194 l 444 146 l 396 146 l 396 97 l 347 97 l 347 49 l 299 49 l 299 0 l 104 0 l 104 49 l 153 49 l 153 97 l 201 97 l 201 146 l 250 146 l 250 194 l 299 194 l 299 243 l 201 243 l 201 292 l 153 292 l 153 340 l 104 340 l 104 632 l 153 632 l 153 681 l 201 681 l 201 729 l 785 729 l 785 0 z "},"ё":{"ha":938,"x_min":104,"x_max":833,"o":"m 250 438 l 688 438 l 688 583 l 250 583 l 250 438 m 201 729 l 736 729 l 736 681 l 785 681 l 785 632 l 833 632 l 833 389 l 785 389 l 785 340 l 736 340 l 736 292 l 250 292 l 250 146 l 639 146 l 639 194 l 833 194 l 833 97 l 785 97 l 785 49 l 736 49 l 736 0 l 201 0 l 201 49 l 153 49 l 153 97 l 104 97 l 104 632 l 153 632 l 153 681 l 201 681 l 201 729 m 396 826 l 250 826 l 250 924 l 396 924 l 396 826 m 688 826 l 542 826 l 542 924 l 688 924 l 688 826 z "},"–":{"ha":792,"x_min":104,"x_max":688,"o":"m 104 486 l 688 486 l 688 340 l 104 340 l 104 486 z "},"—":{"ha":1375,"x_min":104,"x_max":1271,"o":"m 104 486 l 1271 486 l 1271 340 l 104 340 l 104 486 z "},"€":{"ha":986,"x_min":104,"x_max":882,"o":"m 785 0 l 299 0 l 299 49 l 250 49 l 250 97 l 201 97 l 201 146 l 153 146 l 153 292 l 104 292 l 104 438 l 153 438 l 153 535 l 104 535 l 104 681 l 153 681 l 153 826 l 201 826 l 201 875 l 250 875 l 250 924 l 299 924 l 299 972 l 785 972 l 785 924 l 833 924 l 833 875 l 882 875 l 882 778 l 688 778 l 688 826 l 347 826 l 347 778 l 299 778 l 299 681 l 639 681 l 639 535 l 299 535 l 299 438 l 639 438 l 639 292 l 299 292 l 299 194 l 347 194 l 347 146 l 688 146 l 688 194 l 882 194 l 882 97 l 833 97 l 833 49 l 785 49 l 785 0 z "}}}
